<?xml version="1.0" encoding="UTF-8" standalone="no"?>
<!-- Created with Inkscape (http://www.inkscape.org/) -->

<svg
   xmlns:dc="http://purl.org/dc/elements/1.1/"
   xmlns:cc="http://creativecommons.org/ns#"
   xmlns:rdf="http://www.w3.org/1999/02/22-rdf-syntax-ns#"
   xmlns:svg="http://www.w3.org/2000/svg"
   xmlns="http://www.w3.org/2000/svg"
   xmlns:sodipodi="http://sodipodi.sourceforge.net/DTD/sodipodi-0.dtd"
   xmlns:inkscape="http://www.inkscape.org/namespaces/inkscape"
   width="98.957176mm"
   height="98.957176mm"
   viewBox="0 0 98.957179 98.957179"
   version="1.1"
   id="svg8"
   inkscape:version="0.92.2 (5c3e80d, 2017-08-06)"
   sodipodi:docname="explosion.svg">
  <defs
     id="defs2">
    <filter
       height="1.3"
       width="1.3"
       y="-0.15000001"
       x="-0.15000001"
       inkscape:menu-tooltip="Scattered cubes; adjust the Morphology primitive to vary size"
       inkscape:menu="Scatter"
       inkscape:label="Cubes"
       style="color-interpolation-filters:sRGB"
       id="filter838">
      <feTurbulence
         type="fractalNoise"
         numOctaves="3"
         baseFrequency="0.25 0.4"
         seed="5"
         id="feTurbulence820" />
      <feColorMatrix
         result="result5"
         values="1 0 0 0 0 0 1 0 0 0 0 0 1 0 0 0 0 0 1 0 "
         id="feColorMatrix822" />
      <feComposite
         in="SourceGraphic"
         operator="in"
         in2="result5"
         id="feComposite824" />
      <feMorphology
         operator="dilate"
         radius="1.5"
         result="result3"
         id="feMorphology826" />
      <feTurbulence
         numOctaves="5"
         baseFrequency="0.03"
         type="fractalNoise"
         seed="7"
         id="feTurbulence828" />
      <feGaussianBlur
         stdDeviation="0.5"
         result="result91"
         id="feGaussianBlur830" />
      <feDisplacementMap
         in="result3"
         xChannelSelector="R"
         yChannelSelector="G"
         scale="27"
         result="result4"
         in2="result91"
         id="feDisplacementMap832" />
      <feComposite
         in="result4"
         k3="0.8"
         k1="1.3"
         result="result2"
         operator="arithmetic"
         in2="result4"
         id="feComposite834"
         k2="0"
         k4="0" />
      <feBlend
         in2="result2"
         mode="screen"
         in="result2"
         id="feBlend836"
         result="fbSourceGraphic" />
      <feColorMatrix
         result="fbSourceGraphicAlpha"
         in="fbSourceGraphic"
         values="0 0 0 -1 0 0 0 0 -1 0 0 0 0 -1 0 0 0 0 1 0"
         id="feColorMatrix852" />
      <feTurbulence
         id="feTurbulence854"
         baseFrequency="0.14"
         numOctaves="1"
         type="fractalNoise" />
      <feColorMatrix
         id="feColorMatrix856"
         values="1 0 0 0 0 0 1 0 0 0 0 0 1 0 0 0 0 0 6 -3.5 "
         result="result5" />
      <feComposite
         in2="result5"
         id="feComposite858"
         operator="in"
         in="fbSourceGraphic"
         result="result6" />
      <feMorphology
         id="feMorphology860"
         result="result3"
         radius="5"
         operator="dilate"
         in="result6" />
      <feDisplacementMap
         in2="result3"
         id="feDisplacementMap862"
         result="result4"
         scale="0"
         yChannelSelector="A"
         xChannelSelector="R"
         in="result3" />
      <feComposite
         in2="result4"
         id="feComposite864"
         operator="arithmetic"
         result="result2"
         k1="1"
         k3="1"
         k2="0"
         k4="0" />
      <feBlend
         in2="result2"
         id="feBlend866"
         mode="darken"
         in="result2" />
      <feConvolveMatrix
         id="feConvolveMatrix868"
         order="3 3"
         kernelMatrix="2 0 0 0 1 0 0 0 -1 "
         targetX="1"
         targetY="1"
         divisor="2"
         edgeMode="duplicate" />
    </filter>
  </defs>
  <sodipodi:namedview
     id="base"
     pagecolor="#ffffff"
     bordercolor="#666666"
     borderopacity="1.0"
     inkscape:pageopacity="0.0"
     inkscape:pageshadow="2"
     inkscape:zoom="0.98994949"
     inkscape:cx="75.261154"
     inkscape:cy="185.06212"
     inkscape:document-units="mm"
     inkscape:current-layer="g896"
     showgrid="false"
     inkscape:window-width="1920"
     inkscape:window-height="1027"
     inkscape:window-x="-8"
     inkscape:window-y="-8"
     inkscape:window-maximized="1"
     fit-margin-top="-13"
     fit-margin-left="-13"
     fit-margin-right="-13"
     fit-margin-bottom="-13" />
  <metadata
     id="metadata5">
    <rdf:RDF>
      <cc:Work
         rdf:about="">
        <dc:format>image/svg+xml</dc:format>
        <dc:type
           rdf:resource="http://purl.org/dc/dcmitype/StillImage" />
        <dc:title></dc:title>
      </cc:Work>
    </rdf:RDF>
  </metadata>
  <g
     inkscape:label="Layer 1"
     inkscape:groupmode="layer"
     id="layer1"
     transform="translate(-51.897031,-94.141027)"
     style="display:none">
    <path
       style="opacity:1;fill:#ffff00;fill-opacity:1;stroke:#ff00ff;stroke-width:0.37795275;stroke-miterlimit:4;stroke-dasharray:none;filter:url(#filter838)"
       d="M -1627.9062,-138.94141 -1607.3164,88 l -135.4024,-76.210938 77.795,122.470708 -216.5371,-19.64649 191.7246,126.35742 -145.2344,58.84375 142.7832,15.37696 -149.125,155.74609 219.0605,-71.35156 -45.0488,151.93359 101.0176,-102.01562 28.5879,212.20898 80.5215,-215.02148 91.2031,130.67578 -16.9414,-144.00586 183.6738,109.91992 -117.0058,-195.51367 158.3593,10.125 -124.705,-77.50391 201.7832,-75.56445 -224.4278,-30.23438 105.4961,-116.224606 -139.1406,49.457036 67.2969,-206.615239 -163.5742,156.621094 -24.8575,-153.494141 -47.834,138.890625 z"
       transform="matrix(0.12005295,0,0,0.12005295,279.1901,112.23949)"
       id="path815"
       inkscape:connector-curvature="0" />
  </g>
  <g
     style="display:none"
     transform="translate(-51.897031,-94.141027)"
     id="g876"
     inkscape:groupmode="layer"
     inkscape:label="Layer 2">
    <path
       inkscape:connector-curvature="0"
       id="path874"
       transform="matrix(0.11697159,0,0,0.11697159,274.62619,113.04491)"
       d="M -1627.9062,-138.94141 -1607.3164,88 l -135.4024,-76.210938 77.795,122.470708 -216.5371,-19.64649 191.7246,126.35742 -145.2344,58.84375 142.7832,15.37696 -149.125,155.74609 219.0605,-71.35156 -45.0488,151.93359 101.0176,-102.01562 28.5879,212.20898 80.5215,-215.02148 91.2031,130.67578 -16.9414,-144.00586 183.6738,109.91992 -117.0058,-195.51367 158.3593,10.125 -124.705,-77.50391 201.7832,-75.56445 -224.4278,-30.23438 105.4961,-116.224606 -139.1406,49.457036 67.2969,-206.615239 -163.5742,156.621094 -24.8575,-153.494141 -47.834,138.890625 z"
       style="opacity:1;fill:#ffff00;fill-opacity:1;stroke:#ff00ff;stroke-width:0.37795275;stroke-miterlimit:4;stroke-dasharray:none;filter:url(#filter838)" />
  </g>
  <g
     inkscape:label="Layer 3"
     inkscape:groupmode="layer"
     id="g880"
     transform="translate(-51.897031,-94.141027)"
     style="display:none;opacity:0.89200003">
    <path
       style="opacity:1;fill:#ffff00;fill-opacity:1;stroke:#ff00ff;stroke-width:0.37795275;stroke-miterlimit:4;stroke-dasharray:none;filter:url(#filter838)"
       d="M -1627.9062,-138.94141 -1607.3164,88 l -135.4024,-76.210938 77.795,122.470708 -216.5371,-19.64649 191.7246,126.35742 -145.2344,58.84375 142.7832,15.37696 -149.125,155.74609 219.0605,-71.35156 -45.0488,151.93359 101.0176,-102.01562 28.5879,212.20898 80.5215,-215.02148 91.2031,130.67578 -16.9414,-144.00586 183.6738,109.91992 -117.0058,-195.51367 158.3593,10.125 -124.705,-77.50391 201.7832,-75.56445 -224.4278,-30.23438 105.4961,-116.224606 -139.1406,49.457036 67.2969,-206.615239 -163.5742,156.621094 -24.8575,-153.494141 -47.834,138.890625 z"
       transform="matrix(0.11183599,0,0,0.11183599,267.01968,114.38728)"
       id="path878"
       inkscape:connector-curvature="0" />
  </g>
  <g
     style="display:none;opacity:0.70499998"
     transform="translate(-51.897031,-94.141027)"
     id="g884"
     inkscape:groupmode="layer"
     inkscape:label="Layer 4">
    <path
       inkscape:connector-curvature="0"
       id="path882"
       transform="matrix(0.10284869,0,0,0.10284869,253.70829,116.73644)"
       d="M -1627.9062,-138.94141 -1607.3164,88 l -135.4024,-76.210938 77.795,122.470708 -216.5371,-19.64649 191.7246,126.35742 -145.2344,58.84375 142.7832,15.37696 -149.125,155.74609 219.0605,-71.35156 -45.0488,151.93359 101.0176,-102.01562 28.5879,212.20898 80.5215,-215.02148 91.2031,130.67578 -16.9414,-144.00586 183.6738,109.91992 -117.0058,-195.51367 158.3593,10.125 -124.705,-77.50391 201.7832,-75.56445 -224.4278,-30.23438 105.4961,-116.224606 -139.1406,49.457036 67.2969,-206.615239 -163.5742,156.621094 -24.8575,-153.494141 -47.834,138.890625 z"
       style="opacity:1;fill:#ffff00;fill-opacity:1;stroke:#ff00ff;stroke-width:0.37795275;stroke-miterlimit:4;stroke-dasharray:none;filter:url(#filter838)" />
  </g>
  <g
     inkscape:label="Layer 5"
     inkscape:groupmode="layer"
     id="g888"
     transform="translate(-51.897031,-94.141027)"
     style="display:none;opacity:0.75540287">
    <path
       style="opacity:1;fill:#ffff00;fill-opacity:1;stroke:#ff00ff;stroke-width:0.37795275;stroke-miterlimit:4;stroke-dasharray:none;filter:url(#filter838)"
       d="M -1627.9062,-138.94141 -1607.3164,88 l -135.4024,-76.210938 77.795,122.470708 -216.5371,-19.64649 191.7246,126.35742 -145.2344,58.84375 142.7832,15.37696 -149.125,155.74609 219.0605,-71.35156 -45.0488,151.93359 101.0176,-102.01562 28.5879,212.20898 80.5215,-215.02148 91.2031,130.67578 -16.9414,-144.00586 183.6738,109.91992 -117.0058,-195.51367 158.3593,10.125 -124.705,-77.50391 201.7832,-75.56445 -224.4278,-30.23438 105.4961,-116.224606 -139.1406,49.457036 67.2969,-206.615239 -163.5742,156.621094 -24.8575,-153.494141 -47.834,138.890625 z"
       transform="matrix(0.09104743,0.00958306,-0.00958306,0.09104743,238.73392,134.01491)"
       id="path886"
       inkscape:connector-curvature="0" />
  </g>
  <g
     style="display:none;opacity:0.62900002"
     transform="translate(-51.897031,-94.141027)"
     id="g892"
     inkscape:groupmode="layer"
     inkscape:label="Layer 6">
    <path
       inkscape:connector-curvature="0"
       id="path890"
       transform="matrix(0.06978843,0.0025755,-0.00260038,0.06912082,205.42132,129.36708)"
       d="M -1627.9062,-138.94141 -1607.3164,88 l -135.4024,-76.210938 77.795,122.470708 -216.5371,-19.64649 191.7246,126.35742 -145.2344,58.84375 142.7832,15.37696 -149.125,155.74609 219.0605,-71.35156 -45.0488,151.93359 101.0176,-102.01562 28.5879,212.20898 80.5215,-215.02148 91.2031,130.67578 -16.9414,-144.00586 183.6738,109.91992 -117.0058,-195.51367 158.3593,10.125 -124.705,-77.50391 201.7832,-75.56445 -224.4278,-30.23438 105.4961,-116.224606 -139.1406,49.457036 67.2969,-206.615239 -163.5742,156.621094 -24.8575,-153.494141 -47.834,138.890625 z"
       style="opacity:1;fill:#ffff00;fill-opacity:1;stroke:#ff00ff;stroke-width:0.37795275;stroke-miterlimit:4;stroke-dasharray:none;filter:url(#filter838)" />
  </g>
  <g
     inkscape:label="Layer 7"
     inkscape:groupmode="layer"
     id="g896"
     transform="translate(-51.897031,-94.141027)"
     style="display:inline;opacity:0.52899996">
    <path
       style="opacity:1;fill:#ffff00;fill-opacity:1;stroke:#ff00ff;stroke-width:0.37795275;stroke-miterlimit:4;stroke-dasharray:none;filter:url(#filter838)"
       d="M -1627.9062,-138.94141 -1607.3164,88 l -135.4024,-76.210938 77.795,122.470708 -216.5371,-19.64649 191.7246,126.35742 -145.2344,58.84375 142.7832,15.37696 -149.125,155.74609 219.0605,-71.35156 -45.0488,151.93359 101.0176,-102.01562 28.5879,212.20898 80.5215,-215.02148 91.2031,130.67578 -16.9414,-144.00586 183.6738,109.91992 -117.0058,-195.51367 158.3593,10.125 -124.705,-77.50391 201.7832,-75.56445 -224.4278,-30.23438 105.4961,-116.224606 -139.1406,49.457036 67.2969,-206.615239 -163.5742,156.621094 -24.8575,-153.494141 -47.834,138.890625 z"
       transform="matrix(0.04178729,0.01054622,-0.01143204,0.0379081,166.25637,149.33134)"
       id="path894"
       inkscape:connector-curvature="0" />
  </g>
</svg>
