<?xml version="1.0" encoding="UTF-8" standalone="no"?>
<!-- Created with Inkscape (http://www.inkscape.org/) -->

<svg
   xmlns:dc="http://purl.org/dc/elements/1.1/"
   xmlns:cc="http://creativecommons.org/ns#"
   xmlns:rdf="http://www.w3.org/1999/02/22-rdf-syntax-ns#"
   xmlns:svg="http://www.w3.org/2000/svg"
   xmlns="http://www.w3.org/2000/svg"
   xmlns:xlink="http://www.w3.org/1999/xlink"
   xmlns:sodipodi="http://sodipodi.sourceforge.net/DTD/sodipodi-0.dtd"
   xmlns:inkscape="http://www.inkscape.org/namespaces/inkscape"
   width="1200"
   height="900"
   viewBox="0 0 317.49999 238.12501"
   version="1.1"
   id="svg8"
   inkscape:version="0.92.2 (5c3e80d, 2017-08-06)"
   sodipodi:docname="starfield2.svg"
   inkscape:export-filename="C:\Users\gregb\OneDrive\CoderDojo\DojoClass\RetroGamingWorkshop\week5\assets\gameart\starfield2.png"
   inkscape:export-xdpi="96"
   inkscape:export-ydpi="96">
  <defs
     id="defs2">
    <filter
       inkscape:menu="Shadows and Glows"
       inkscape:menu-tooltip="Inner colorized shadow, outer black shadow"
       style="color-interpolation-filters:sRGB;"
       inkscape:label="Cross Blur"
       id="filter977">
      <feColorMatrix
         values="0 0 0 0 0 0 0 0 0 0 0 0 0 0 0 0.21 0.72 0.07 0 0 "
         result="result1"
         id="feColorMatrix949" />
      <feColorMatrix
         values="1 0 0 0 0 0 1 0 0 0 0 0 1 0 0 0 0 0 2 0 "
         result="result9"
         id="feColorMatrix951" />
      <feComposite
         in2="result9"
         in="SourceGraphic"
         operator="in"
         result="result4"
         id="feComposite953" />
      <feFlood
         result="result2"
         flood-color="rgb(0,0,0)"
         id="feFlood955" />
      <feComposite
         in2="result9"
         operator="in"
         result="result10"
         id="feComposite957" />
      <feComposite
         in2="result4"
         operator="atop"
         id="feComposite959" />
      <feGaussianBlur
         stdDeviation="3"
         result="result8"
         id="feGaussianBlur961" />
      <feOffset
         dx="3"
         dy="3"
         result="result3"
         in="result8"
         id="feOffset963" />
      <feFlood
         flood-opacity="1"
         flood-color="rgb(219,173,62)"
         result="result5"
         id="feFlood965" />
      <feMerge
         result="result6"
         id="feMerge973">
        <feMergeNode
           in="result5"
           id="feMergeNode967" />
        <feMergeNode
           in="result3"
           id="feMergeNode969" />
        <feMergeNode
           in="result4"
           id="feMergeNode971" />
      </feMerge>
      <feComposite
         in2="SourceGraphic"
         operator="in"
         result="fbSourceGraphic"
         id="feComposite975" />
      <feColorMatrix
         result="fbSourceGraphicAlpha"
         in="fbSourceGraphic"
         values="0 0 0 -1 0 0 0 0 -1 0 0 0 0 -1 0 0 0 0 1 0"
         id="feColorMatrix979" />
      <feGaussianBlur
         id="feGaussianBlur981"
         result="result0"
         in="fbSourceGraphicAlpha"
         stdDeviation="4" />
      <feOffset
         id="feOffset983"
         dx="5"
         dy="5"
         result="result4" />
      <feComposite
         in2="result4"
         id="feComposite985"
         in="fbSourceGraphic"
         operator="xor"
         result="fbSourceGraphic" />
      <feColorMatrix
         result="fbSourceGraphicAlpha"
         in="fbSourceGraphic"
         values="0 0 0 -1 0 0 0 0 -1 0 0 0 0 -1 0 0 0 0 1 0"
         id="feColorMatrix1173" />
      <feColorMatrix
         id="feColorMatrix1175"
         in="fbSourceGraphic"
         values="1 0 0 0 0 0 1 0 0 0 0 0 1 0 0 -0.2125 -0.7154 -0.0721 1 0 "
         result="colormatrix" />
      <feComposite
         in2="colormatrix"
         id="feComposite1177"
         in="fbSourceGraphic"
         operator="arithmetic"
         k2="1"
         k3="7.42"
         k4="0.1"
         result="composite" />
      <feGaussianBlur
         id="feGaussianBlur1179"
         stdDeviation="3.02932 0.01"
         result="blur1" />
      <feGaussianBlur
         id="feGaussianBlur1181"
         in="composite"
         stdDeviation="0.01 3.03"
         result="blur2" />
      <feBlend
         in2="blur1"
         id="feBlend1183"
         in="blur2"
         mode="multiply"
         result="blend" />
    </filter>
  </defs>
  <sodipodi:namedview
     id="base"
     pagecolor="#28283c"
     bordercolor="#666666"
     borderopacity="1.0"
     inkscape:pageopacity="0"
     inkscape:pageshadow="2"
     inkscape:zoom="0.49497475"
     inkscape:cx="137.47245"
     inkscape:cy="206.37865"
     inkscape:document-units="mm"
     inkscape:current-layer="layer1"
     showgrid="false"
     units="px"
     inkscape:window-width="1920"
     inkscape:window-height="1027"
     inkscape:window-x="1912"
     inkscape:window-y="-8"
     inkscape:window-maximized="1" />
  <metadata
     id="metadata5">
    <rdf:RDF>
      <cc:Work
         rdf:about="">
        <dc:format>image/svg+xml</dc:format>
        <dc:type
           rdf:resource="http://purl.org/dc/dcmitype/StillImage" />
        <dc:title></dc:title>
      </cc:Work>
    </rdf:RDF>
  </metadata>
  <g
     inkscape:label="Layer 1"
     inkscape:groupmode="layer"
     id="layer1"
     transform="translate(0,-58.874983)">
    <ellipse
       style="opacity:1;fill:#ffffff;fill-opacity:1;stroke:#28283c;stroke-width:0.18170948;stroke-miterlimit:4;stroke-dasharray:none;stroke-opacity:1"
       id="path815"
       cx="31.35799"
       cy="105.35996"
       rx="1.2141352"
       ry="1.4569622" />
    <use
       id="use817"
       inkscape:spray-origin="#path815"
       xlink:href="#path815"
       x="0"
       y="0"
       width="100%"
       height="100%"
       transform="translate(-9.8601743,32.79949)" />
    <use
       id="use819"
       inkscape:spray-origin="#path815"
       xlink:href="#path815"
       x="0"
       y="0"
       width="100%"
       height="100%"
       transform="translate(79.131268,100.7471)" />
    <use
       id="use821"
       inkscape:spray-origin="#path815"
       xlink:href="#path815"
       x="0"
       y="0"
       width="100%"
       height="100%"
       transform="translate(0.81539961,30.003213)" />
    <use
       id="use823"
       inkscape:spray-origin="#path815"
       xlink:href="#path815"
       x="0"
       y="0"
       width="100%"
       height="100%"
       transform="translate(139.41604,49.019583)" />
    <use
       id="use825"
       inkscape:spray-origin="#path815"
       xlink:href="#path815"
       x="0"
       y="0"
       width="100%"
       height="100%"
       transform="translate(24.951423,75.011801)" />
    <use
       id="use827"
       inkscape:spray-origin="#path815"
       xlink:href="#path815"
       x="0"
       y="0"
       width="100%"
       height="100%"
       transform="translate(167.8857,51.755482)" />
    <use
       id="use829"
       inkscape:spray-origin="#path815"
       xlink:href="#path815"
       x="0"
       y="0"
       width="100%"
       height="100%"
       transform="translate(61.539064,87.947344)" />
    <use
       id="use831"
       inkscape:spray-origin="#path815"
       xlink:href="#path815"
       x="0"
       y="0"
       width="100%"
       height="100%"
       transform="translate(81.975396,28.301676)" />
    <use
       id="use833"
       inkscape:spray-origin="#path815"
       xlink:href="#path815"
       x="0"
       y="0"
       width="100%"
       height="100%"
       transform="translate(87.289255,118.73003)" />
    <use
       id="use835"
       inkscape:spray-origin="#path815"
       xlink:href="#path815"
       x="0"
       y="0"
       width="100%"
       height="100%"
       transform="translate(135.74102,82.414857)" />
    <use
       id="use837"
       inkscape:spray-origin="#path815"
       xlink:href="#path815"
       x="0"
       y="0"
       width="100%"
       height="100%"
       transform="translate(81.801014,127.80363)" />
    <use
       id="use839"
       inkscape:spray-origin="#path815"
       xlink:href="#path815"
       x="0"
       y="0"
       width="100%"
       height="100%"
       transform="translate(135.1521,156.35825)" />
    <use
       id="use841"
       inkscape:spray-origin="#path815"
       xlink:href="#path815"
       x="0"
       y="0"
       width="100%"
       height="100%"
       transform="translate(108.79569,68.876282)" />
    <use
       id="use843"
       inkscape:spray-origin="#path815"
       xlink:href="#path815"
       x="0"
       y="0"
       width="100%"
       height="100%"
       transform="translate(237.58498,185.81496)" />
    <use
       id="use845"
       inkscape:spray-origin="#path815"
       xlink:href="#path815"
       x="0"
       y="0"
       width="100%"
       height="100%"
       transform="translate(129.15217,163.07169)" />
    <use
       id="use847"
       inkscape:spray-origin="#path815"
       xlink:href="#path815"
       x="0"
       y="0"
       width="100%"
       height="100%"
       transform="translate(179.56464,198.82881)" />
    <use
       id="use849"
       inkscape:spray-origin="#path815"
       xlink:href="#path815"
       x="0"
       y="0"
       width="100%"
       height="100%"
       transform="translate(291.5279,241.47108)" />
    <use
       id="use851"
       inkscape:spray-origin="#path815"
       xlink:href="#path815"
       x="0"
       y="0"
       width="100%"
       height="100%"
       transform="translate(135.36914,263.16336)" />
    <use
       id="use853"
       inkscape:spray-origin="#path815"
       xlink:href="#path815"
       x="0"
       y="0"
       width="100%"
       height="100%"
       transform="translate(30.804336,207.62584)" />
    <use
       id="use855"
       inkscape:spray-origin="#path815"
       xlink:href="#path815"
       x="0"
       y="0"
       width="100%"
       height="100%"
       transform="translate(65.057933,275.25397)" />
    <use
       id="use857"
       inkscape:spray-origin="#path815"
       xlink:href="#path815"
       x="0"
       y="0"
       width="100%"
       height="100%"
       transform="translate(60.902493,237.6704)" />
    <use
       id="use859"
       inkscape:spray-origin="#path815"
       xlink:href="#path815"
       x="0"
       y="0"
       width="100%"
       height="100%"
       transform="translate(207.6112,194.96326)" />
    <use
       id="use861"
       inkscape:spray-origin="#path815"
       xlink:href="#path815"
       x="0"
       y="0"
       width="100%"
       height="100%"
       transform="translate(171.03188,212.93541)" />
    <use
       id="use863"
       inkscape:spray-origin="#path815"
       xlink:href="#path815"
       x="0"
       y="0"
       width="100%"
       height="100%"
       transform="translate(218.36925,272.54415)" />
    <use
       id="use865"
       inkscape:spray-origin="#path815"
       xlink:href="#path815"
       x="0"
       y="0"
       width="100%"
       height="100%"
       transform="translate(230.10306,245.09297)" />
    <use
       id="use867"
       inkscape:spray-origin="#path815"
       xlink:href="#path815"
       x="0"
       y="0"
       width="100%"
       height="100%"
       transform="translate(310.07297,308.94869)" />
    <use
       id="use869"
       inkscape:spray-origin="#path815"
       xlink:href="#path815"
       x="0"
       y="0"
       width="100%"
       height="100%"
       transform="translate(386.41326,269.95388)" />
    <use
       id="use871"
       inkscape:spray-origin="#path815"
       xlink:href="#path815"
       x="0"
       y="0"
       width="100%"
       height="100%"
       transform="translate(275.66596,247.5628)" />
    <use
       id="use873"
       inkscape:spray-origin="#path815"
       xlink:href="#path815"
       x="0"
       y="0"
       width="100%"
       height="100%"
       transform="translate(310.35482,208.0978)" />
    <use
       id="use875"
       inkscape:spray-origin="#path815"
       xlink:href="#path815"
       x="0"
       y="0"
       width="100%"
       height="100%"
       transform="translate(242.12549,311.35417)" />
    <use
       id="use877"
       inkscape:spray-origin="#path815"
       xlink:href="#path815"
       x="0"
       y="0"
       width="100%"
       height="100%"
       transform="translate(317.3211,145.33543)" />
    <use
       id="use879"
       inkscape:spray-origin="#path815"
       xlink:href="#path815"
       x="0"
       y="0"
       width="100%"
       height="100%"
       transform="translate(294.04624,122.32938)" />
    <use
       id="use881"
       inkscape:spray-origin="#path815"
       xlink:href="#path815"
       x="0"
       y="0"
       width="100%"
       height="100%"
       transform="translate(377.93687,158.92888)" />
    <use
       id="use883"
       inkscape:spray-origin="#path815"
       xlink:href="#path815"
       x="0"
       y="0"
       width="100%"
       height="100%"
       transform="translate(317.09192,26.882871)" />
    <use
       id="use885"
       inkscape:spray-origin="#path815"
       xlink:href="#path815"
       x="0"
       y="0"
       width="100%"
       height="100%"
       transform="translate(301.05348,157.60312)" />
    <use
       id="use887"
       inkscape:spray-origin="#path815"
       xlink:href="#path815"
       x="0"
       y="0"
       width="100%"
       height="100%"
       transform="translate(271.0923,128.21439)" />
    <use
       id="use889"
       inkscape:spray-origin="#path815"
       xlink:href="#path815"
       x="0"
       y="0"
       width="100%"
       height="100%"
       transform="translate(301.26479,75.956908)" />
    <use
       id="use891"
       inkscape:spray-origin="#path815"
       xlink:href="#path815"
       x="0"
       y="0"
       width="100%"
       height="100%"
       transform="translate(235.32135,13.505005)" />
    <use
       id="use893"
       inkscape:spray-origin="#path815"
       xlink:href="#path815"
       x="0"
       y="0"
       width="100%"
       height="100%"
       transform="translate(252.32258,3.956397)" />
    <use
       id="use895"
       inkscape:spray-origin="#path815"
       xlink:href="#path815"
       x="0"
       y="0"
       width="100%"
       height="100%"
       transform="translate(213.24378,-22.614088)" />
    <use
       id="use897"
       inkscape:spray-origin="#path815"
       xlink:href="#path815"
       x="0"
       y="0"
       width="100%"
       height="100%"
       transform="translate(206.51259,-33.530388)" />
    <use
       id="use899"
       inkscape:spray-origin="#path815"
       xlink:href="#path815"
       x="0"
       y="0"
       width="100%"
       height="100%"
       transform="translate(296.73715,71.886143)" />
    <use
       id="use901"
       inkscape:spray-origin="#path815"
       xlink:href="#path815"
       x="0"
       y="0"
       width="100%"
       height="100%"
       transform="translate(252.65735,72.01522)" />
    <use
       id="use903"
       inkscape:spray-origin="#path815"
       xlink:href="#path815"
       x="0"
       y="0"
       width="100%"
       height="100%"
       transform="translate(366.96986,28.175382)" />
    <use
       id="use905"
       inkscape:spray-origin="#path815"
       xlink:href="#path815"
       x="0"
       y="0"
       width="100%"
       height="100%"
       transform="translate(356.21756,96.774087)" />
    <use
       id="use907"
       inkscape:spray-origin="#path815"
       xlink:href="#path815"
       x="0"
       y="0"
       width="100%"
       height="100%"
       transform="translate(300.04477,49.91855)" />
    <use
       id="use909"
       inkscape:spray-origin="#path815"
       xlink:href="#path815"
       x="0"
       y="0"
       width="100%"
       height="100%"
       transform="translate(389.40954,47.650241)" />
    <use
       id="use911"
       inkscape:spray-origin="#path815"
       xlink:href="#path815"
       x="0"
       y="0"
       width="100%"
       height="100%"
       transform="translate(309.86604,37.562976)" />
    <use
       id="use913"
       inkscape:spray-origin="#path815"
       xlink:href="#path815"
       x="0"
       y="0"
       width="100%"
       height="100%"
       transform="translate(444.90547,82.033869)" />
    <use
       id="use915"
       inkscape:spray-origin="#path815"
       xlink:href="#path815"
       x="0"
       y="0"
       width="100%"
       height="100%"
       transform="translate(351.36947,40.351698)" />
    <use
       id="use917"
       inkscape:spray-origin="#path815"
       xlink:href="#path815"
       x="0"
       y="0"
       width="100%"
       height="100%"
       transform="translate(341.47388,12.94461)" />
    <use
       id="use919"
       inkscape:spray-origin="#path815"
       xlink:href="#path815"
       x="0"
       y="0"
       width="100%"
       height="100%"
       transform="translate(376.29032,38.383011)" />
    <use
       id="use921"
       inkscape:spray-origin="#path815"
       xlink:href="#path815"
       x="0"
       y="0"
       width="100%"
       height="100%"
       transform="translate(307.78488,55.818157)" />
    <path
       sodipodi:type="star"
       style="opacity:1;fill:#ffffff;fill-opacity:1;stroke:#28283c;stroke-width:0.15034859;stroke-miterlimit:4;stroke-dasharray:none;stroke-opacity:1"
       id="path1197"
       sodipodi:sides="7"
       sodipodi:cx="80.9478"
       sodipodi:cy="100.73968"
       sodipodi:r1="2.343086"
       sodipodi:r2="0.89153272"
       sodipodi:arg1="1.0303768"
       sodipodi:arg2="1.4791758"
       inkscape:flatsided="false"
       inkscape:rounded="0"
       inkscape:randomized="0"
       d="m 82.153308,102.74886 -1.12394,-1.12139 -0.900786,1.30741 0.17597,-1.5779 -1.583808,0.1109 1.34337,-0.84623 -1.07419,-1.169131 1.499186,0.522675 0.244315,-1.568775 0.526083,1.497993 1.378846,-0.787102 -0.84317,1.34529 1.475077,0.58728 -1.577499,0.17955 z"
       inkscape:transform-center-x="-0.0477006"
       inkscape:transform-center-y="-0.069029056" />
    <use
       id="use1199"
       inkscape:spray-origin="#path1197"
       xlink:href="#path1197"
       x="0"
       y="0"
       width="100%"
       height="100%"
       transform="translate(61.387848,43.602584)" />
    <use
       id="use1201"
       inkscape:spray-origin="#path1197"
       xlink:href="#path1197"
       x="0"
       y="0"
       width="100%"
       height="100%"
       transform="translate(2.4763339,-27.022615)" />
    <use
       id="use1203"
       inkscape:spray-origin="#path1197"
       xlink:href="#path1197"
       x="0"
       y="0"
       width="100%"
       height="100%"
       transform="translate(-31.997629,-25.529706)" />
    <use
       id="use1205"
       inkscape:spray-origin="#path1197"
       xlink:href="#path1197"
       x="0"
       y="0"
       width="100%"
       height="100%"
       transform="translate(54.298461,37.657473)" />
    <use
       id="use1207"
       inkscape:spray-origin="#path1197"
       xlink:href="#path1197"
       x="0"
       y="0"
       width="100%"
       height="100%"
       transform="matrix(1.4214635,0,0,1.4214635,-42.435972,-38.1539)" />
    <use
       id="use1209"
       inkscape:spray-origin="#path1197"
       xlink:href="#path1197"
       x="0"
       y="0"
       width="100%"
       height="100%"
       transform="translate(58.307893,-9.3759837)" />
    <use
       id="use1211"
       inkscape:spray-origin="#path1197"
       xlink:href="#path1197"
       x="0"
       y="0"
       width="100%"
       height="100%"
       transform="translate(64.191563,63.324647)" />
    <use
       id="use1213"
       inkscape:spray-origin="#path1197"
       xlink:href="#path1197"
       x="0"
       y="0"
       width="100%"
       height="100%"
       transform="translate(165.41545,98.895881)" />
    <use
       id="use1215"
       inkscape:spray-origin="#path1197"
       xlink:href="#path1197"
       x="0"
       y="0"
       width="100%"
       height="100%"
       transform="translate(115.92535,177.60151)" />
    <use
       id="use1217"
       inkscape:spray-origin="#path1197"
       xlink:href="#path1197"
       x="0"
       y="0"
       width="100%"
       height="100%"
       transform="translate(121.21749,155.19933)" />
    <use
       id="use1219"
       inkscape:spray-origin="#path1197"
       xlink:href="#path1197"
       x="0"
       y="0"
       width="100%"
       height="100%"
       transform="translate(133.09974,110.04202)" />
    <use
       id="use1221"
       inkscape:spray-origin="#path1197"
       xlink:href="#path1197"
       x="0"
       y="0"
       width="100%"
       height="100%"
       transform="translate(193.63816,131.77608)" />
    <use
       id="use1223"
       inkscape:spray-origin="#path1197"
       xlink:href="#path1197"
       x="0"
       y="0"
       width="100%"
       height="100%"
       transform="translate(181.53034,103.87272)" />
    <use
       id="use1225"
       inkscape:spray-origin="#path1197"
       xlink:href="#path1197"
       x="0"
       y="0"
       width="100%"
       height="100%"
       transform="translate(209.9337,167.76808)" />
    <use
       id="use1227"
       inkscape:spray-origin="#path1197"
       xlink:href="#path1197"
       x="0"
       y="0"
       width="100%"
       height="100%"
       transform="translate(148.80498,134.53683)" />
    <use
       id="use1229"
       inkscape:spray-origin="#path1197"
       xlink:href="#path1197"
       x="0"
       y="0"
       width="100%"
       height="100%"
       transform="translate(109.69522,204.61708)" />
    <use
       id="use1231"
       inkscape:spray-origin="#path1197"
       xlink:href="#path1197"
       x="0"
       y="0"
       width="100%"
       height="100%"
       transform="translate(233.13604,189.6803)" />
    <use
       id="use1233"
       inkscape:spray-origin="#path1197"
       xlink:href="#path1197"
       x="0"
       y="0"
       width="100%"
       height="100%"
       transform="translate(150.25522,265.20537)" />
    <use
       id="use1235"
       inkscape:spray-origin="#path1197"
       xlink:href="#path1197"
       x="0"
       y="0"
       width="100%"
       height="100%"
       transform="translate(145.05149,141.91689)" />
    <use
       id="use1237"
       inkscape:spray-origin="#path1197"
       xlink:href="#path1197"
       x="0"
       y="0"
       width="100%"
       height="100%"
       transform="translate(155.06296,225.71588)" />
    <use
       id="use1239"
       inkscape:spray-origin="#path1197"
       xlink:href="#path1197"
       x="0"
       y="0"
       width="100%"
       height="100%"
       transform="translate(131.3861,251.14367)" />
    <use
       id="use1241"
       inkscape:spray-origin="#path1197"
       xlink:href="#path1197"
       x="0"
       y="0"
       width="100%"
       height="100%"
       transform="translate(22.535315,279.51423)" />
    <use
       id="use1243"
       inkscape:spray-origin="#path1197"
       xlink:href="#path1197"
       x="0"
       y="0"
       width="100%"
       height="100%"
       transform="translate(-43.441597,235.16744)" />
    <use
       id="use1245"
       inkscape:spray-origin="#path1197"
       xlink:href="#path1197"
       x="0"
       y="0"
       width="100%"
       height="100%"
       transform="translate(-35.284727,247.25878)" />
    <use
       id="use1247"
       inkscape:spray-origin="#path1197"
       xlink:href="#path1197"
       x="0"
       y="0"
       width="100%"
       height="100%"
       transform="translate(41.99133,191.66219)" />
    <use
       id="use1249"
       inkscape:spray-origin="#path1197"
       xlink:href="#path1197"
       x="0"
       y="0"
       width="100%"
       height="100%"
       transform="translate(92.008569,219.81095)" />
    <use
       id="use1251"
       inkscape:spray-origin="#path1197"
       xlink:href="#path1197"
       x="0"
       y="0"
       width="100%"
       height="100%"
       transform="translate(173.46547,170.48337)" />
    <use
       id="use1253"
       inkscape:spray-origin="#path1197"
       xlink:href="#path1197"
       x="0"
       y="0"
       width="100%"
       height="100%"
       transform="translate(255.63111,134.26089)" />
    <use
       id="use1255"
       inkscape:spray-origin="#path1197"
       xlink:href="#path1197"
       x="0"
       y="0"
       width="100%"
       height="100%"
       transform="translate(227.54425,224.8079)" />
    <use
       id="use1257"
       inkscape:spray-origin="#path1197"
       xlink:href="#path1197"
       x="0"
       y="0"
       width="100%"
       height="100%"
       transform="translate(278.09213,218.3168)" />
    <use
       id="use1259"
       inkscape:spray-origin="#path1197"
       xlink:href="#path1197"
       x="0"
       y="0"
       width="100%"
       height="100%"
       transform="translate(313.75498,265.43016)" />
    <use
       id="use1261"
       inkscape:spray-origin="#path1197"
       xlink:href="#path1197"
       x="0"
       y="0"
       width="100%"
       height="100%"
       transform="translate(335.59158,196.89283)" />
    <use
       id="use1263"
       inkscape:spray-origin="#path1197"
       xlink:href="#path1197"
       x="0"
       y="0"
       width="100%"
       height="100%"
       transform="translate(332.02705,143.04573)" />
    <use
       id="use1265"
       inkscape:spray-origin="#path1197"
       xlink:href="#path1197"
       x="0"
       y="0"
       width="100%"
       height="100%"
       transform="translate(405.74007,262.40604)" />
    <use
       id="use1267"
       inkscape:spray-origin="#path1197"
       xlink:href="#path1197"
       x="0"
       y="0"
       width="100%"
       height="100%"
       transform="translate(313.32998,188.38814)" />
    <use
       id="use1269"
       inkscape:spray-origin="#path1197"
       xlink:href="#path1197"
       x="0"
       y="0"
       width="100%"
       height="100%"
       transform="translate(396.16683,242.17787)" />
    <use
       id="use1271"
       inkscape:spray-origin="#path1197"
       xlink:href="#path1197"
       x="0"
       y="0"
       width="100%"
       height="100%"
       transform="translate(368.37533,161.62248)" />
    <use
       id="use1273"
       inkscape:spray-origin="#path1197"
       xlink:href="#path1197"
       x="0"
       y="0"
       width="100%"
       height="100%"
       transform="translate(311.55598,150.30992)" />
    <use
       id="use1275"
       inkscape:spray-origin="#path1197"
       xlink:href="#path1197"
       x="0"
       y="0"
       width="100%"
       height="100%"
       transform="translate(177.97834,47.961552)" />
    <use
       id="use1277"
       inkscape:spray-origin="#path1197"
       xlink:href="#path1197"
       x="0"
       y="0"
       width="100%"
       height="100%"
       transform="translate(278.41293,73.738452)" />
    <use
       id="use1279"
       inkscape:spray-origin="#path1197"
       xlink:href="#path1197"
       x="0"
       y="0"
       width="100%"
       height="100%"
       transform="translate(342.18338,77.803164)" />
    <use
       id="use1281"
       inkscape:spray-origin="#path1197"
       xlink:href="#path1197"
       x="0"
       y="0"
       width="100%"
       height="100%"
       transform="translate(262.30795,5.0353805)" />
    <use
       id="use1283"
       inkscape:spray-origin="#path1197"
       xlink:href="#path1197"
       x="0"
       y="0"
       width="100%"
       height="100%"
       transform="translate(367.72307,-5.483446)" />
    <use
       id="use1285"
       inkscape:spray-origin="#path1197"
       xlink:href="#path1197"
       x="0"
       y="0"
       width="100%"
       height="100%"
       transform="translate(388.40091,13.363517)" />
    <use
       id="use1287"
       inkscape:spray-origin="#path1197"
       xlink:href="#path1197"
       x="0"
       y="0"
       width="100%"
       height="100%"
       transform="translate(407.36122,-46.648987)" />
    <use
       id="use1289"
       inkscape:spray-origin="#path1197"
       xlink:href="#path1197"
       x="0"
       y="0"
       width="100%"
       height="100%"
       transform="translate(377.20308,87.289094)" />
    <use
       id="use1291"
       inkscape:spray-origin="#path1197"
       xlink:href="#path1197"
       x="0"
       y="0"
       width="100%"
       height="100%"
       transform="translate(390.41577,38.93073)" />
    <use
       id="use1295"
       inkscape:spray-origin="#path1197"
       xlink:href="#path1197"
       x="0"
       y="0"
       width="100%"
       height="100%"
       transform="translate(321.09501,56.84899)" />
    <use
       id="use1297"
       inkscape:spray-origin="#path1197"
       xlink:href="#path1197"
       x="0"
       y="0"
       width="100%"
       height="100%"
       transform="translate(359.91419,114.21296)" />
    <use
       id="use1299"
       inkscape:spray-origin="#path1197"
       xlink:href="#path1197"
       x="0"
       y="0"
       width="100%"
       height="100%"
       transform="translate(398.56971,89.141779)" />
    <use
       id="use1301"
       inkscape:spray-origin="#path1197"
       xlink:href="#path1197"
       x="0"
       y="0"
       width="100%"
       height="100%"
       transform="translate(334.09381,20.195552)" />
    <use
       id="use1303"
       inkscape:spray-origin="#path1197"
       xlink:href="#path1197"
       x="0"
       y="0"
       width="100%"
       height="100%"
       transform="translate(265.73141,71.520767)" />
    <use
       id="use1305"
       inkscape:spray-origin="#path1197"
       xlink:href="#path1197"
       x="0"
       y="0"
       width="100%"
       height="100%"
       transform="translate(37.943124,123.97316)" />
    <use
       id="use1307"
       inkscape:spray-origin="#path1197"
       xlink:href="#path1197"
       x="0"
       y="0"
       width="100%"
       height="100%"
       transform="translate(-55.370722,132.62902)" />
    <use
       id="use1309"
       inkscape:spray-origin="#path1197"
       xlink:href="#path1197"
       x="0"
       y="0"
       width="100%"
       height="100%"
       transform="translate(14.074624,235.7695)" />
    <use
       id="use1311"
       inkscape:spray-origin="#path1197"
       xlink:href="#path1197"
       x="0"
       y="0"
       width="100%"
       height="100%"
       transform="translate(-23.174024,166.60708)" />
    <use
       id="use1313"
       inkscape:spray-origin="#path1197"
       xlink:href="#path1197"
       x="0"
       y="0"
       width="100%"
       height="100%"
       transform="translate(-96.361354,244.61838)" />
    <use
       id="use1315"
       inkscape:spray-origin="#path1197"
       xlink:href="#path1197"
       x="0"
       y="0"
       width="100%"
       height="100%"
       transform="translate(-82.866814,228.58081)" />
    <use
       id="use1317"
       inkscape:spray-origin="#path1197"
       xlink:href="#path1197"
       x="0"
       y="0"
       width="100%"
       height="100%"
       transform="translate(-126.42804,191.77808)" />
    <use
       id="use1319"
       inkscape:spray-origin="#path1197"
       xlink:href="#path1197"
       x="0"
       y="0"
       width="100%"
       height="100%"
       transform="translate(21.7196,261.03733)" />
    <use
       id="use1321"
       inkscape:spray-origin="#path1197"
       xlink:href="#path1197"
       x="0"
       y="0"
       width="100%"
       height="100%"
       transform="translate(-104.03883,233.24657)" />
    <use
       transform="matrix(1,0,0,-1,179.56464,246.6647)"
       height="100%"
       width="100%"
       y="0"
       x="0"
       xlink:href="#path815"
       inkscape:spray-origin="#path815"
       id="use1323" />
    <use
       transform="matrix(1,0,0,-1,291.5279,204.02267)"
       height="100%"
       width="100%"
       y="0"
       x="0"
       xlink:href="#path815"
       inkscape:spray-origin="#path815"
       id="use1325" />
    <use
       transform="matrix(1,0,0,-1,135.36914,182.33052)"
       height="100%"
       width="100%"
       y="0"
       x="0"
       xlink:href="#path815"
       inkscape:spray-origin="#path815"
       id="use1327" />
    <use
       transform="matrix(1,0,0,-1,30.804336,237.86772)"
       height="100%"
       width="100%"
       y="0"
       x="0"
       xlink:href="#path815"
       inkscape:spray-origin="#path815"
       id="use1329" />
    <use
       transform="matrix(1,0,0,-1,65.057933,170.23999)"
       height="100%"
       width="100%"
       y="0"
       x="0"
       xlink:href="#path815"
       inkscape:spray-origin="#path815"
       id="use1331" />
    <use
       transform="matrix(1,0,0,-1,60.902493,207.82334)"
       height="100%"
       width="100%"
       y="0"
       x="0"
       xlink:href="#path815"
       inkscape:spray-origin="#path815"
       id="use1333" />
    <use
       transform="matrix(1,0,0,-1,207.6112,250.53023)"
       height="100%"
       width="100%"
       y="0"
       x="0"
       xlink:href="#path815"
       inkscape:spray-origin="#path815"
       id="use1335" />
    <use
       transform="matrix(1,0,0,-1,171.03188,232.55819)"
       height="100%"
       width="100%"
       y="0"
       x="0"
       xlink:href="#path815"
       inkscape:spray-origin="#path815"
       id="use1337" />
    <use
       transform="matrix(1,0,0,-1,218.36925,172.94978)"
       height="100%"
       width="100%"
       y="0"
       x="0"
       xlink:href="#path815"
       inkscape:spray-origin="#path815"
       id="use1339" />
    <use
       transform="matrix(1,0,0,-1,230.10306,200.40081)"
       height="100%"
       width="100%"
       y="0"
       x="0"
       xlink:href="#path815"
       inkscape:spray-origin="#path815"
       id="use1341" />
    <use
       transform="matrix(1,0,0,-1,310.07297,136.54545)"
       height="100%"
       width="100%"
       y="0"
       x="0"
       xlink:href="#path815"
       inkscape:spray-origin="#path815"
       id="use1343" />
    <use
       transform="matrix(1,0,0,-1,386.41326,175.54004)"
       height="100%"
       width="100%"
       y="0"
       x="0"
       xlink:href="#path815"
       inkscape:spray-origin="#path815"
       id="use1345" />
    <use
       transform="matrix(1,0,0,-1,275.66596,197.93099)"
       height="100%"
       width="100%"
       y="0"
       x="0"
       xlink:href="#path815"
       inkscape:spray-origin="#path815"
       id="use1347" />
    <use
       transform="matrix(1,0,0,-1,310.35482,237.39577)"
       height="100%"
       width="100%"
       y="0"
       x="0"
       xlink:href="#path815"
       inkscape:spray-origin="#path815"
       id="use1349" />
    <use
       transform="matrix(1,0,0,-1,242.12549,134.13999)"
       height="100%"
       width="100%"
       y="0"
       x="0"
       xlink:href="#path815"
       inkscape:spray-origin="#path815"
       id="use1351" />
    <use
       transform="matrix(1,0,0,-1,109.69522,240.87647)"
       height="100%"
       width="100%"
       y="0"
       x="0"
       xlink:href="#path1197"
       inkscape:spray-origin="#path1197"
       id="use1353" />
    <use
       transform="matrix(1,0,0,-1,150.25522,180.28852)"
       height="100%"
       width="100%"
       y="0"
       x="0"
       xlink:href="#path1197"
       inkscape:spray-origin="#path1197"
       id="use1355" />
    <use
       transform="matrix(0.58401754,0,0,-0.58401754,187.79275,179.61813)"
       height="100%"
       width="100%"
       y="0"
       x="0"
       xlink:href="#path1197"
       inkscape:spray-origin="#path1197"
       id="use1357" />
    <use
       transform="matrix(1,0,0,-1,131.3861,194.35016)"
       height="100%"
       width="100%"
       y="0"
       x="0"
       xlink:href="#path1197"
       inkscape:spray-origin="#path1197"
       id="use1359" />
    <use
       transform="matrix(1,0,0,-1,22.535315,165.97975)"
       height="100%"
       width="100%"
       y="0"
       x="0"
       xlink:href="#path1197"
       inkscape:spray-origin="#path1197"
       id="use1361" />
    <use
       transform="matrix(1,0,0,-1,-43.441597,210.32629)"
       height="100%"
       width="100%"
       y="0"
       x="0"
       xlink:href="#path1197"
       inkscape:spray-origin="#path1197"
       id="use1363" />
    <use
       transform="matrix(0.58401754,0,0,-0.58401754,-2.5549463,158.07535)"
       height="100%"
       width="100%"
       y="0"
       x="0"
       xlink:href="#path1197"
       inkscape:spray-origin="#path1197"
       id="use1365" />
    <use
       transform="matrix(1,0,0,-1,92.008569,225.6827)"
       height="100%"
       width="100%"
       y="0"
       x="0"
       xlink:href="#path1197"
       inkscape:spray-origin="#path1197"
       id="use1367" />
    <use
       transform="matrix(1,0,0,-1,227.54425,220.68577)"
       height="100%"
       width="100%"
       y="0"
       x="0"
       xlink:href="#path1197"
       inkscape:spray-origin="#path1197"
       id="use1369" />
    <use
       transform="matrix(1,0,0,-1,278.09213,227.17683)"
       height="100%"
       width="100%"
       y="0"
       x="0"
       xlink:href="#path1197"
       inkscape:spray-origin="#path1197"
       id="use1371" />
    <use
       transform="matrix(1,0,0,-1,313.75498,180.06374)"
       height="100%"
       width="100%"
       y="0"
       x="0"
       xlink:href="#path1197"
       inkscape:spray-origin="#path1197"
       id="use1373" />
    <use
       transform="matrix(1,0,0,-1,405.74007,183.08784)"
       height="100%"
       width="100%"
       y="0"
       x="0"
       xlink:href="#path1197"
       inkscape:spray-origin="#path1197"
       id="use1375" />
    <use
       transform="matrix(1,0,0,-1,396.16683,203.3159)"
       height="100%"
       width="100%"
       y="0"
       x="0"
       xlink:href="#path1197"
       inkscape:spray-origin="#path1197"
       id="use1377" />
    <use
       transform="matrix(1,0,0,-1,14.074624,209.72423)"
       height="100%"
       width="100%"
       y="0"
       x="0"
       xlink:href="#path1197"
       inkscape:spray-origin="#path1197"
       id="use1379" />
    <use
       transform="matrix(1,0,0,-1,-82.866814,216.91288)"
       height="100%"
       width="100%"
       y="0"
       x="0"
       xlink:href="#path1197"
       inkscape:spray-origin="#path1197"
       id="use1381" />
    <use
       transform="matrix(1,0,0,-1,21.7196,184.45655)"
       height="100%"
       width="100%"
       y="0"
       x="0"
       xlink:href="#path1197"
       inkscape:spray-origin="#path1197"
       id="use1383" />
  </g>
</svg>
